<mxfile host="app.diagrams.net" agent="Mozilla/5.0 (Windows NT 10.0; Win64; x64) AppleWebKit/537.36 (KHTML, like Gecko) Chrome/132.0.0.0 Safari/537.36 Edg/132.0.0.0" version="26.0.10">
  <diagram name="Page-1" id="nMgQEDlbjFM768P5uV_y">
    <mxGraphModel dx="1042" dy="531" grid="1" gridSize="10" guides="1" tooltips="1" connect="1" arrows="1" fold="1" page="1" pageScale="1" pageWidth="850" pageHeight="1100" math="0" shadow="0">
      <root>
        <mxCell id="0" />
        <mxCell id="1" parent="0" />
        <mxCell id="40IgXUJlbmSTByupilq5-1" value="Text" style="text;html=1;align=center;verticalAlign=middle;whiteSpace=wrap;rounded=0;labelBackgroundColor=none;fontColor=#393C56;" vertex="1" parent="1">
          <mxGeometry x="330" y="120" width="60" height="30" as="geometry" />
        </mxCell>
        <mxCell id="40IgXUJlbmSTByupilq5-12" value="" style="edgeStyle=orthogonalEdgeStyle;rounded=0;orthogonalLoop=1;jettySize=auto;html=1;strokeColor=#E07A5F;fontColor=#393C56;fillColor=#F2CC8F;" edge="1" parent="1" source="40IgXUJlbmSTByupilq5-2" target="40IgXUJlbmSTByupilq5-9">
          <mxGeometry relative="1" as="geometry" />
        </mxCell>
        <mxCell id="40IgXUJlbmSTByupilq5-2" value="Question in Standrard Q&amp;amp;A" style="rounded=1;whiteSpace=wrap;html=1;fillColor=#F2CC8F;strokeColor=#E07A5F;labelBackgroundColor=none;fontColor=#393C56;" vertex="1" parent="1">
          <mxGeometry x="305" y="105" width="145" height="55" as="geometry" />
        </mxCell>
        <mxCell id="40IgXUJlbmSTByupilq5-15" style="edgeStyle=orthogonalEdgeStyle;rounded=0;orthogonalLoop=1;jettySize=auto;html=1;entryX=0.5;entryY=0;entryDx=0;entryDy=0;strokeColor=#E07A5F;fontColor=#393C56;fillColor=#F2CC8F;" edge="1" parent="1" source="40IgXUJlbmSTByupilq5-9" target="40IgXUJlbmSTByupilq5-14">
          <mxGeometry relative="1" as="geometry" />
        </mxCell>
        <mxCell id="40IgXUJlbmSTByupilq5-9" value="LLM" style="ellipse;whiteSpace=wrap;html=1;aspect=fixed;labelBackgroundColor=none;fillColor=#F2CC8F;strokeColor=#E07A5F;fontColor=#393C56;" vertex="1" parent="1">
          <mxGeometry x="337.5" y="200" width="80" height="80" as="geometry" />
        </mxCell>
        <mxCell id="40IgXUJlbmSTByupilq5-11" value="INPUT" style="text;html=1;align=center;verticalAlign=middle;whiteSpace=wrap;rounded=0;fontColor=#393C56;" vertex="1" parent="1">
          <mxGeometry x="347.5" y="75" width="60" height="30" as="geometry" />
        </mxCell>
        <mxCell id="40IgXUJlbmSTByupilq5-21" value="" style="edgeStyle=orthogonalEdgeStyle;rounded=0;orthogonalLoop=1;jettySize=auto;html=1;strokeColor=#E07A5F;fontColor=#393C56;fillColor=#F2CC8F;" edge="1" parent="1" source="40IgXUJlbmSTByupilq5-14" target="40IgXUJlbmSTByupilq5-18">
          <mxGeometry relative="1" as="geometry" />
        </mxCell>
        <mxCell id="40IgXUJlbmSTByupilq5-14" value="" style="rhombus;whiteSpace=wrap;html=1;strokeColor=#E07A5F;fontColor=#393C56;fillColor=#F2CC8F;" vertex="1" parent="1">
          <mxGeometry x="337.5" y="320" width="80" height="80" as="geometry" />
        </mxCell>
        <mxCell id="40IgXUJlbmSTByupilq5-16" value="Decoding step" style="text;html=1;align=center;verticalAlign=middle;whiteSpace=wrap;rounded=0;fontColor=#393C56;" vertex="1" parent="1">
          <mxGeometry x="347.5" y="345" width="60" height="30" as="geometry" />
        </mxCell>
        <mxCell id="40IgXUJlbmSTByupilq5-23" value="" style="edgeStyle=orthogonalEdgeStyle;rounded=0;orthogonalLoop=1;jettySize=auto;html=1;strokeColor=#E07A5F;fontColor=#393C56;fillColor=#F2CC8F;" edge="1" parent="1" source="40IgXUJlbmSTByupilq5-18" target="40IgXUJlbmSTByupilq5-22">
          <mxGeometry relative="1" as="geometry" />
        </mxCell>
        <mxCell id="40IgXUJlbmSTByupilq5-18" value="Top K tokens" style="rounded=0;whiteSpace=wrap;html=1;strokeColor=#E07A5F;fontColor=#393C56;fillColor=#F2CC8F;" vertex="1" parent="1">
          <mxGeometry x="317.5" y="430" width="120" height="20" as="geometry" />
        </mxCell>
        <mxCell id="40IgXUJlbmSTByupilq5-22" value="Generate multiple paths for all k tokens" style="rounded=0;whiteSpace=wrap;html=1;strokeColor=#E07A5F;fontColor=#393C56;fillColor=#F2CC8F;" vertex="1" parent="1">
          <mxGeometry x="298.75" y="490" width="157.5" height="40" as="geometry" />
        </mxCell>
        <mxCell id="40IgXUJlbmSTByupilq5-31" style="edgeStyle=orthogonalEdgeStyle;rounded=0;orthogonalLoop=1;jettySize=auto;html=1;strokeColor=#E07A5F;fontColor=#393C56;fillColor=#F2CC8F;entryX=0;entryY=0.5;entryDx=0;entryDy=0;" edge="1" parent="1" source="40IgXUJlbmSTByupilq5-24" target="40IgXUJlbmSTByupilq5-30">
          <mxGeometry relative="1" as="geometry">
            <Array as="points">
              <mxPoint x="150" y="660" />
              <mxPoint x="250" y="660" />
              <mxPoint x="250" y="715" />
            </Array>
          </mxGeometry>
        </mxCell>
        <mxCell id="40IgXUJlbmSTByupilq5-24" value="First path" style="rounded=1;whiteSpace=wrap;html=1;strokeColor=#E07A5F;fontColor=#393C56;fillColor=#F2CC8F;" vertex="1" parent="1">
          <mxGeometry x="90" y="570" width="120" height="30" as="geometry" />
        </mxCell>
        <mxCell id="40IgXUJlbmSTByupilq5-32" style="edgeStyle=orthogonalEdgeStyle;rounded=0;orthogonalLoop=1;jettySize=auto;html=1;strokeColor=#E07A5F;fontColor=#393C56;fillColor=#F2CC8F;" edge="1" parent="1" source="40IgXUJlbmSTByupilq5-25" target="40IgXUJlbmSTByupilq5-30">
          <mxGeometry relative="1" as="geometry" />
        </mxCell>
        <mxCell id="40IgXUJlbmSTByupilq5-25" value="second path" style="rounded=1;whiteSpace=wrap;html=1;strokeColor=#E07A5F;fontColor=#393C56;fillColor=#F2CC8F;" vertex="1" parent="1">
          <mxGeometry x="260" y="570" width="120" height="30" as="geometry" />
        </mxCell>
        <mxCell id="40IgXUJlbmSTByupilq5-33" style="edgeStyle=orthogonalEdgeStyle;rounded=0;orthogonalLoop=1;jettySize=auto;html=1;entryX=1;entryY=0.5;entryDx=0;entryDy=0;strokeColor=#E07A5F;fontColor=#393C56;fillColor=#F2CC8F;" edge="1" parent="1" source="40IgXUJlbmSTByupilq5-26" target="40IgXUJlbmSTByupilq5-30">
          <mxGeometry relative="1" as="geometry">
            <Array as="points">
              <mxPoint x="590" y="660" />
              <mxPoint x="465" y="660" />
              <mxPoint x="465" y="700" />
            </Array>
          </mxGeometry>
        </mxCell>
        <mxCell id="40IgXUJlbmSTByupilq5-26" value="Kth path" style="rounded=1;whiteSpace=wrap;html=1;strokeColor=#E07A5F;fontColor=#393C56;fillColor=#F2CC8F;" vertex="1" parent="1">
          <mxGeometry x="530" y="570" width="120" height="30" as="geometry" />
        </mxCell>
        <mxCell id="40IgXUJlbmSTByupilq5-27" style="edgeStyle=orthogonalEdgeStyle;rounded=0;orthogonalLoop=1;jettySize=auto;html=1;entryX=0.56;entryY=-0.107;entryDx=0;entryDy=0;entryPerimeter=0;strokeColor=#E07A5F;fontColor=#393C56;fillColor=#F2CC8F;" edge="1" parent="1" source="40IgXUJlbmSTByupilq5-22" target="40IgXUJlbmSTByupilq5-24">
          <mxGeometry relative="1" as="geometry">
            <Array as="points">
              <mxPoint x="150" y="510" />
              <mxPoint x="150" y="567" />
            </Array>
          </mxGeometry>
        </mxCell>
        <mxCell id="40IgXUJlbmSTByupilq5-28" style="edgeStyle=orthogonalEdgeStyle;rounded=0;orthogonalLoop=1;jettySize=auto;html=1;entryX=0.597;entryY=0;entryDx=0;entryDy=0;entryPerimeter=0;strokeColor=#E07A5F;fontColor=#393C56;fillColor=#F2CC8F;" edge="1" parent="1" source="40IgXUJlbmSTByupilq5-22" target="40IgXUJlbmSTByupilq5-25">
          <mxGeometry relative="1" as="geometry" />
        </mxCell>
        <mxCell id="40IgXUJlbmSTByupilq5-29" style="edgeStyle=orthogonalEdgeStyle;rounded=0;orthogonalLoop=1;jettySize=auto;html=1;entryX=0.433;entryY=-0.133;entryDx=0;entryDy=0;entryPerimeter=0;strokeColor=#E07A5F;fontColor=#393C56;fillColor=#F2CC8F;" edge="1" parent="1" source="40IgXUJlbmSTByupilq5-22" target="40IgXUJlbmSTByupilq5-26">
          <mxGeometry relative="1" as="geometry" />
        </mxCell>
        <mxCell id="40IgXUJlbmSTByupilq5-36" value="" style="edgeStyle=orthogonalEdgeStyle;rounded=0;orthogonalLoop=1;jettySize=auto;html=1;strokeColor=#E07A5F;fontColor=#393C56;fillColor=#F2CC8F;" edge="1" parent="1" source="40IgXUJlbmSTByupilq5-30" target="40IgXUJlbmSTByupilq5-34">
          <mxGeometry relative="1" as="geometry" />
        </mxCell>
        <mxCell id="40IgXUJlbmSTByupilq5-30" value="&lt;div style=&quot;line-height: 110%;&quot;&gt;&lt;font style=&quot;font-size: 9px;&quot;&gt;Measure confidence for each path&lt;/font&gt;&lt;div&gt;&lt;font style=&quot;font-size: 9px;&quot;&gt;(multiply prob of each token)&lt;/font&gt;&lt;/div&gt;&lt;/div&gt;" style="rhombus;whiteSpace=wrap;html=1;strokeColor=#E07A5F;fontColor=#393C56;fillColor=#F2CC8F;" vertex="1" parent="1">
          <mxGeometry x="270" y="660" width="170" height="120" as="geometry" />
        </mxCell>
        <mxCell id="40IgXUJlbmSTByupilq5-40" value="" style="edgeStyle=orthogonalEdgeStyle;rounded=0;orthogonalLoop=1;jettySize=auto;html=1;strokeColor=#E07A5F;fontColor=#393C56;fillColor=#F2CC8F;" edge="1" parent="1" source="40IgXUJlbmSTByupilq5-34" target="40IgXUJlbmSTByupilq5-39">
          <mxGeometry relative="1" as="geometry" />
        </mxCell>
        <mxCell id="40IgXUJlbmSTByupilq5-34" value="Rank path based on confidence score" style="rounded=0;whiteSpace=wrap;html=1;strokeColor=#E07A5F;fontColor=#393C56;fillColor=#F2CC8F;" vertex="1" parent="1">
          <mxGeometry x="295" y="830" width="120" height="60" as="geometry" />
        </mxCell>
        <mxCell id="40IgXUJlbmSTByupilq5-42" value="" style="edgeStyle=orthogonalEdgeStyle;rounded=0;orthogonalLoop=1;jettySize=auto;html=1;strokeColor=#E07A5F;fontColor=#393C56;fillColor=#F2CC8F;" edge="1" parent="1" source="40IgXUJlbmSTByupilq5-39" target="40IgXUJlbmSTByupilq5-41">
          <mxGeometry relative="1" as="geometry" />
        </mxCell>
        <mxCell id="40IgXUJlbmSTByupilq5-39" value="Select highest confidence score path" style="rounded=0;whiteSpace=wrap;html=1;strokeColor=#E07A5F;fontColor=#393C56;fillColor=#F2CC8F;" vertex="1" parent="1">
          <mxGeometry x="295" y="940" width="120" height="60" as="geometry" />
        </mxCell>
        <mxCell id="40IgXUJlbmSTByupilq5-41" value="Final answer" style="rounded=0;whiteSpace=wrap;html=1;strokeColor=#E07A5F;fontColor=#393C56;fillColor=#F2CC8F;" vertex="1" parent="1">
          <mxGeometry x="295" y="1040" width="120" height="60" as="geometry" />
        </mxCell>
      </root>
    </mxGraphModel>
  </diagram>
</mxfile>
